<svg viewBox="0 0 760 152" xmlns="http://www.w3.org/2000/svg" role="img" aria-labelledby="s-homelab-architecture">
  <title id="s-homelab-architecture">Homelab auto-hébergé</title>
  <style>
    .box{fill:none;stroke:currentColor;stroke-width:1.5}
    .box-accent{fill:#ffb627;stroke:#c98d10;stroke-width:1.5}
    .box-soft{fill:#1e3a5f;stroke:#1e3a5f;stroke-width:1.5}
    .lbl{font-family:'JetBrains Mono',ui-monospace,monospace;font-size:12px;fill:currentColor;font-weight:600}
    .lbl-fill{fill:#0d1117}.lbl-blue{fill:#f5f0e6}
    .sub{font-family:'JetBrains Mono',ui-monospace,monospace;font-size:9.5px;fill:currentColor;opacity:.62}
    .sub-fill{fill:#0d1117;opacity:.72}.sub-blue{fill:#d1d9e0;opacity:.85}
    .ttl{font-family:'JetBrains Mono',ui-monospace,monospace;font-size:11px;fill:currentColor;opacity:.8;font-weight:600}
    .arrow{stroke:currentColor;stroke-width:1.5;fill:none;marker-end:url(#ar)}
    .dash{stroke:#ffb627;stroke-dasharray:5,3;stroke-width:1.4;fill:none}
  </style>
  <defs><marker id="ar" markerWidth="9" markerHeight="9" refX="8" refY="3" orient="auto">
    <path d="M0,0 L0,6 L9,3 z" fill="currentColor"/></marker></defs>
  <text class="ttl" x="380" y="22" text-anchor="middle">Homelab auto-hébergé</text><rect class="box" x="18" y="40" width="124" height="66" rx="3"/><text class="lbl" x="80" y="77" text-anchor="middle">Internet</text><path class="arrow" d="M 142 73 L 168 73"/><rect class="box" x="168" y="40" width="124" height="66" rx="3"/><text class="lbl" x="230" y="77" text-anchor="middle">DNS</text><path class="arrow" d="M 292 73 L 318 73"/><rect class="box" x="318" y="40" width="124" height="66" rx="3"/><text class="lbl" x="380" y="77" text-anchor="middle">VPS</text><path class="arrow" d="M 442 73 L 468 73"/><rect class="box-accent" x="468" y="40" width="124" height="66" rx="3"/><text class="lbl lbl-fill" x="530" y="70.5" text-anchor="middle">reverse proxy</text><text class="sub sub-fill" x="530" y="83.5" text-anchor="middle">HTTPS</text><path class="arrow" d="M 592 73 L 618 73"/><rect class="box-soft" x="618" y="40" width="124" height="66" rx="3"/><text class="lbl lbl-blue" x="680" y="70.5" text-anchor="middle">services</text><text class="sub sub-blue" x="680" y="83.5" text-anchor="middle">conteneurisés</text><text class="sub" x="380" y="144" text-anchor="middle">monitorés et sauvegardés</text>
</svg>
